<svg  width={24} height={24} viewBox="0 0 24 24">
   
        <path id="a"
        
         d="M19.939 0C21.077 0 22 .912 22 2.037v11.926c0 .544-.216 1.038-.567 1.403a.433.433 0 0 1-.037.047.736.736 0 0 1-.11.093A2.077 2.077 0 0 1 19.94 16H2.061c-.506 0-.97-.18-1.328-.479a.71.71 0 0 1-.18-.169A2.018 2.018 0 0 1 0 13.963V2.037c0-.404.119-.78.324-1.097A.714.714 0 0 1 .938.33 2.068 2.068 0 0 1 2.06 0h17.878zm-6.777 8.934l-.758.681a2.161 2.161 0 0 1-1.409.55 2.152 2.152 0 0 1-1.438-.55l-.745-.667-6.236 5.631h16.837l-6.251-5.645zm7.4-6.653l-6.336 5.696 6.336 5.721V2.281zm-19.125.066V13.69l6.309-5.696-6.309-5.647zm17.945-.927H2.531l7.947 7.144a.716.716 0 0 0 .958 0l1.154-1.04a.717.717 0 0 1 .178-.158l6.614-5.946z"/>
    
    <g fill="#54575F" fillRule="#54575F" transform="translate(1 4)">
        <mask id="b" fill="#fff">
           
        </mask>
        <use fill="#141414" fillRule="#54575F" />
        <g fill="#54575F" mask="url(#b)">
            <path d="M-1-4h24v24H-1z"/>
        </g>
    </g>
</svg>




